<svg version="1.1"
      xmlns="http://www.w3.org/2000/svg"
      xmlns:xlink="http://www.w3.org/1999/xlink"  id="snapshot-28963" width="100" height="100" viewBox="0 0 100 100"><desc>This image was made on Patterninja.com</desc><defs>
<!-- image 74593 -->
<g id="transformed-74593" data-image="74593" transform="translate(-30, -28) rotate(0, 30, 28)"><g><svg version="1.1" width="60px" height="56px" viewBox="0 0 60 56"><g id="original-74593"><svg xmlns="http://www.w3.org/2000/svg" viewBox="0 0 72 67" xmlns:xlink="http://www.w3.org/1999/xlink" version="1.1" preserveAspectRatio="xMidYMid meet">
  <path fill-rule="evenodd" d="M1.013 20.69l33.539 45.222a2 2 0 0 0 3.213 0l33.539-45.221a2.01 2.01 0 0 0-.488-2.853C60.97 11.033 49.03 7.045 36.158 7.045c-12.873 0-24.813 3.988-34.657 10.793a2.01 2.01 0 0 0-.488 2.853z" fill="rgba(61, 45, 29, 1)" stroke="none"/>
  <path fill-rule="evenodd" d="M1.013 13.69l33.539 45.222a2 2 0 0 0 3.213 0l33.539-45.221a2.01 2.01 0 0 0-.488-2.853C60.97 4.033 49.03.045 36.158.045c-12.873 0-24.813 3.988-34.657 10.793a2.01 2.01 0 0 0-.488 2.853z" fill="rgba(229, 175, 110, 1)" stroke="none"/>
  <path fill-rule="evenodd" d="M2.02 15.05l1.114 1.5a60.73 60.73 0 0 1 33.024-9.708 60.73 60.73 0 0 1 33.025 9.709l1.113-1.501A60.73 60.73 0 0 0 36.158 4.602 60.73 60.73 0 0 0 2.02 15.05z" fill="rgba(188, 143, 72, 0.5)" stroke="none"/>
  <path fill-rule="evenodd" d="M4.763 18.748l29.789 40.164a2 2 0 0 0 3.213 0l29.788-40.164A52.462 52.462 0 0 0 36.158 8.376 52.462 52.462 0 0 0 4.763 18.748z" fill="rgba(255, 232, 194, 1)" stroke="none"/>
  <path fill-rule="evenodd" d="M14.622 15c4.928 0 4.928 8 9.856 8 4.927 0 4.927-8 9.853-8 4.93 0 4.93 8 9.86 8s11.134-10.219 13.41-5.845c2.017 3.88-9.28.332-13.154 2.361-3.873 2.029-.161 9.116-4.034 11.144-3.876 2.03-7.588-5.056-11.464-3.026-3.876 2.03-.463 5.232-2.24 9.23-1.209 2.716-.683 2.374 2.29 2.374 2.976 0 2.976-8 5.951-8 2.977 0 2.977 8 5.955 8 2.977 0 7.401-8.773 9.171-6.378 1.469 1.986-7.876 1.757-9.44 3.669-1.564 1.912 4.628 6.977 3.064 8.89-1.567 1.915-7.76-3.15-9.326-1.234-1.567 1.915 4.626 6.98 3.059 8.896" fill="rgba(0, 0, 0, 1)" stroke="rgba(209, 104, 84, 1)"/>
  <path fill-rule="evenodd" d="M29.441 33.048c1.511 2.022-.128 3.662-2.15 2.15-2.023 1.512-3.662-.128-2.151-2.15-1.511-2.022.128-3.662 2.15-2.15 2.023-1.512 3.662.128 2.151 2.15z" fill="rgba(153, 198, 74, 1)" stroke="none"/>
  <path fill-rule="evenodd" d="M47.176 33.048c1.511 2.022-.128 3.662-2.15 2.15-2.023 1.512-3.662-.128-2.15-2.15-1.512-2.022.127-3.662 2.15-2.15 2.022-1.512 3.661.128 2.15 2.15z" fill="rgba(153, 198, 74, 1)" stroke="none"/>
  <path fill-rule="evenodd" d="M37.765 56.912a2 2 0 0 1-3.213 0L5.733 18.056c-.324.23-.651.455-.97.692l29.789 40.164a2 2 0 0 0 3.213 0l29.788-40.164c-.318-.237-.646-.463-.97-.692L37.765 56.912z" fill="rgba(83, 71, 65, 0.1)" stroke="none"/>
  <path fill-rule="evenodd" d="M36.158 10.375a52.442 52.442 0 0 1 30.425 9.68l.97-1.307A52.462 52.462 0 0 0 36.158 8.375 52.462 52.462 0 0 0 4.763 18.748l.97 1.308a52.442 52.442 0 0 1 30.425-9.68z" fill="rgba(83, 71, 65, 0.1)" stroke="none"/>
  <circle cx="24.628" cy="23.382" r="6.096" fill-rule="evenodd" fill="rgba(83, 71, 65, 0.1)" stroke="none"/>
  <circle cx="24.628" cy="22.382" r="6.096" fill-rule="evenodd" fill="rgba(209, 104, 84, 1)" stroke="none"/>
  <circle cx="24.628" cy="22.382" r="5.398" fill-rule="evenodd" fill="rgba(181, 73, 44, 1)" stroke="none"/>
  <circle cx="24.628" cy="22.382" r="1.86" fill-rule="evenodd" fill="rgba(209, 104, 84, 1)" stroke="none"/>
  <circle cx="36.158" cy="40.388" r="6.096" fill-rule="evenodd" fill="rgba(83, 71, 65, 0.1)" stroke="none"/>
  <circle cx="36.158" cy="39.388" r="6.096" fill-rule="evenodd" fill="rgba(209, 104, 84, 1)" stroke="none"/>
  <circle cx="36.158" cy="39.388" r="5.398" fill-rule="evenodd" fill="rgba(181, 73, 44, 1)" stroke="none"/>
  <circle cx="36.158" cy="39.388" r="1.86" fill-rule="evenodd" fill="rgba(209, 104, 84, 1)" stroke="none"/>
  <circle cx="47.688" cy="23.382" r="6.096" fill-rule="evenodd" fill="rgba(83, 71, 65, 0.1)" stroke="none"/>
  <circle cx="47.688" cy="22.382" r="6.096" fill-rule="evenodd" fill="rgba(209, 104, 84, 1)" stroke="none"/>
  <circle cx="47.688" cy="22.382" r="5.398" fill-rule="evenodd" fill="rgba(181, 73, 44, 1)" stroke="none"/>
  <circle cx="47.688" cy="22.382" r="1.86" fill-rule="evenodd" fill="rgba(209, 104, 84, 1)" stroke="none"/>
  <circle cx="13.348" cy="19.194" r="1.908" fill-rule="evenodd" fill="rgba(188, 143, 72, 1)" stroke="none"/>
  <circle cx="58.968" cy="19.194" r="1.908" fill-rule="evenodd" fill="rgba(188, 143, 72, 1)" stroke="none"/>
  <circle cx="36.158" cy="28.477" r="1.908" fill-rule="evenodd" fill="rgba(188, 143, 72, 1)" stroke="none"/>
  <circle cx="36.158" cy="15.194" r="1.908" fill-rule="evenodd" fill="rgba(188, 143, 72, 1)" stroke="none"/>
  <circle cx="27.291" cy="33.048" r="1.244" fill-rule="evenodd" fill="rgba(135, 102, 54, 1)" stroke="none"/>
  <circle cx="45.026" cy="33.048" r="1.244" fill-rule="evenodd" fill="rgba(135, 102, 54, 1)" stroke="none"/>
  <path fill-rule="evenodd" d="M37.796 22.194c1.15 1.54-.098 2.788-1.638 1.637-1.54 1.151-2.788-.097-1.637-1.637-1.151-1.54.097-2.788 1.637-1.638 1.54-1.15 2.788.098 1.638 1.638z" fill="rgba(153, 198, 74, 1)" stroke="none"/>
  <path fill-rule="evenodd" d="M37.796 50.355c1.15 1.54-.098 2.789-1.638 1.638-1.54 1.15-2.788-.098-1.637-1.638-1.151-1.54.097-2.788 1.637-1.637 1.54-1.15 2.788.098 1.638 1.637z" fill="rgba(153, 198, 74, 1)" stroke="none"/>
</svg>
</g></svg></g></g>
<!-- /image 74593 -->

<!-- image 35725 -->
<g id="transformed-35725" data-image="35725" transform="translate(20, 22) rotate(0, 30, 28)"><g><svg version="1.1" width="60px" height="56px" viewBox="0 0 60 56"><g id="original-35725"><svg xmlns="http://www.w3.org/2000/svg" viewBox="0 0 72 67" xmlns:xlink="http://www.w3.org/1999/xlink" version="1.1" preserveAspectRatio="xMidYMid meet">
  <path fill-rule="evenodd" d="M1.013 20.69l33.539 45.222a2 2 0 0 0 3.213 0l33.539-45.221a2.01 2.01 0 0 0-.488-2.853C60.97 11.033 49.03 7.045 36.158 7.045c-12.873 0-24.813 3.988-34.657 10.793a2.01 2.01 0 0 0-.488 2.853z" fill="rgba(66, 61, 56, 1)" stroke="none"/>
  <path fill-rule="evenodd" d="M1.013 13.69l33.539 45.222a2 2 0 0 0 3.213 0l33.539-45.221a2.01 2.01 0 0 0-.488-2.853C60.97 4.033 49.03.045 36.158.045c-12.873 0-24.813 3.988-34.657 10.793a2.01 2.01 0 0 0-.488 2.853z" fill="rgba(229, 175, 110, 1)" stroke="none"/>
  <path fill-rule="evenodd" d="M2.02 15.05l1.114 1.5a60.73 60.73 0 0 1 33.024-9.708 60.73 60.73 0 0 1 33.025 9.709l1.113-1.501A60.73 60.73 0 0 0 36.158 4.602 60.73 60.73 0 0 0 2.02 15.05z" fill="rgba(188, 143, 72, 0.5)" stroke="none"/>
  <path fill-rule="evenodd" d="M4.763 18.748l29.789 40.164a2 2 0 0 0 3.213 0l29.788-40.164A52.462 52.462 0 0 0 36.158 8.376 52.462 52.462 0 0 0 4.763 18.748z" fill="rgba(255, 232, 194, 1)" stroke="none"/>
  <path fill-rule="evenodd" d="M14.622 15c4.928 0 4.928 8 9.856 8 4.927 0 4.927-8 9.853-8 4.93 0 4.93 8 9.86 8s11.134-10.219 13.41-5.845c2.017 3.88-9.28.332-13.154 2.361-3.873 2.029-.161 9.116-4.034 11.144-3.876 2.03-7.588-5.056-11.464-3.026-3.876 2.03-.463 5.232-2.24 9.23-1.209 2.716-.683 2.374 2.29 2.374 2.976 0 2.976-8 5.951-8 2.977 0 2.977 8 5.955 8 2.977 0 7.401-8.773 9.171-6.378 1.469 1.986-7.876 1.757-9.44 3.669-1.564 1.912 4.628 6.977 3.064 8.89-1.567 1.915-7.76-3.15-9.326-1.234-1.567 1.915 4.626 6.98 3.059 8.896" fill="rgba(0, 0, 0, 1)" stroke="rgba(209, 104, 84, 1)"/>
  <path fill-rule="evenodd" d="M29.441 33.048c1.511 2.022-.128 3.662-2.15 2.15-2.023 1.512-3.662-.128-2.151-2.15-1.511-2.022.128-3.662 2.15-2.15 2.023-1.512 3.662.128 2.151 2.15z" fill="rgba(153, 198, 74, 1)" stroke="none"/>
  <path fill-rule="evenodd" d="M47.176 33.048c1.511 2.022-.128 3.662-2.15 2.15-2.023 1.512-3.662-.128-2.15-2.15-1.512-2.022.127-3.662 2.15-2.15 2.022-1.512 3.661.128 2.15 2.15z" fill="rgba(153, 198, 74, 1)" stroke="none"/>
  <path fill-rule="evenodd" d="M37.765 56.912a2 2 0 0 1-3.213 0L5.733 18.056c-.324.23-.651.455-.97.692l29.789 40.164a2 2 0 0 0 3.213 0l29.788-40.164c-.318-.237-.646-.463-.97-.692L37.765 56.912z" fill="rgba(83, 71, 65, 0.1)" stroke="none"/>
  <path fill-rule="evenodd" d="M36.158 10.375a52.442 52.442 0 0 1 30.425 9.68l.97-1.307A52.462 52.462 0 0 0 36.158 8.375 52.462 52.462 0 0 0 4.763 18.748l.97 1.308a52.442 52.442 0 0 1 30.425-9.68z" fill="rgba(83, 71, 65, 0.1)" stroke="none"/>
  <circle cx="24.628" cy="23.382" r="6.096" fill-rule="evenodd" fill="rgba(83, 71, 65, 0.1)" stroke="none"/>
  <circle cx="24.628" cy="22.382" r="6.096" fill-rule="evenodd" fill="rgba(209, 104, 84, 1)" stroke="none"/>
  <circle cx="24.628" cy="22.382" r="5.398" fill-rule="evenodd" fill="rgba(181, 73, 44, 1)" stroke="none"/>
  <circle cx="24.628" cy="22.382" r="1.86" fill-rule="evenodd" fill="rgba(209, 104, 84, 1)" stroke="none"/>
  <circle cx="36.158" cy="40.388" r="6.096" fill-rule="evenodd" fill="rgba(83, 71, 65, 0.1)" stroke="none"/>
  <circle cx="36.158" cy="39.388" r="6.096" fill-rule="evenodd" fill="rgba(209, 104, 84, 1)" stroke="none"/>
  <circle cx="36.158" cy="39.388" r="5.398" fill-rule="evenodd" fill="rgba(181, 73, 44, 1)" stroke="none"/>
  <circle cx="36.158" cy="39.388" r="1.86" fill-rule="evenodd" fill="rgba(209, 104, 84, 1)" stroke="none"/>
  <circle cx="47.688" cy="23.382" r="6.096" fill-rule="evenodd" fill="rgba(83, 71, 65, 0.1)" stroke="none"/>
  <circle cx="47.688" cy="22.382" r="6.096" fill-rule="evenodd" fill="rgba(209, 104, 84, 1)" stroke="none"/>
  <circle cx="47.688" cy="22.382" r="5.398" fill-rule="evenodd" fill="rgba(181, 73, 44, 1)" stroke="none"/>
  <circle cx="47.688" cy="22.382" r="1.86" fill-rule="evenodd" fill="rgba(209, 104, 84, 1)" stroke="none"/>
  <circle cx="13.348" cy="19.194" r="1.908" fill-rule="evenodd" fill="rgba(188, 143, 72, 1)" stroke="none"/>
  <circle cx="58.968" cy="19.194" r="1.908" fill-rule="evenodd" fill="rgba(188, 143, 72, 1)" stroke="none"/>
  <circle cx="36.158" cy="28.477" r="1.908" fill-rule="evenodd" fill="rgba(188, 143, 72, 1)" stroke="none"/>
  <circle cx="36.158" cy="15.194" r="1.908" fill-rule="evenodd" fill="rgba(188, 143, 72, 1)" stroke="none"/>
  <circle cx="27.291" cy="33.048" r="1.244" fill-rule="evenodd" fill="rgba(135, 102, 54, 1)" stroke="none"/>
  <circle cx="45.026" cy="33.048" r="1.244" fill-rule="evenodd" fill="rgba(135, 102, 54, 1)" stroke="none"/>
  <path fill-rule="evenodd" d="M37.796 22.194c1.15 1.54-.098 2.788-1.638 1.637-1.54 1.151-2.788-.097-1.637-1.637-1.151-1.54.097-2.788 1.637-1.638 1.54-1.15 2.788.098 1.638 1.638z" fill="rgba(153, 198, 74, 1)" stroke="none"/>
  <path fill-rule="evenodd" d="M37.796 50.355c1.15 1.54-.098 2.789-1.638 1.638-1.54 1.15-2.788-.098-1.637-1.638-1.151-1.54.097-2.788 1.637-1.637 1.54-1.15 2.788.098 1.638 1.637z" fill="rgba(153, 198, 74, 1)" stroke="none"/>
</svg>
</g></svg></g></g>
<!-- /image 35725 -->
</defs><rect x="0" y="0" width="100" height="100" fill="rgba(109, 62, 28, 0)"></rect><use xlink:href="#transformed-74593" transform="translate(-100, -100)"></use><use xlink:href="#transformed-74593" transform="translate(0, -100)"></use><use xlink:href="#transformed-74593" transform="translate(100, -100)"></use><use xlink:href="#transformed-74593" transform="translate(-100, 0)"></use><use xlink:href="#transformed-74593" transform="translate(0, 0)"></use><use xlink:href="#transformed-74593" transform="translate(100, 0)"></use><use xlink:href="#transformed-74593" transform="translate(-100, 100)"></use><use xlink:href="#transformed-74593" transform="translate(0, 100)"></use><use xlink:href="#transformed-74593" transform="translate(100, 100)"></use><use xlink:href="#transformed-35725" transform="translate(-100, -100)"></use><use xlink:href="#transformed-35725" transform="translate(0, -100)"></use><use xlink:href="#transformed-35725" transform="translate(100, -100)"></use><use xlink:href="#transformed-35725" transform="translate(-100, 0)"></use><use xlink:href="#transformed-35725" transform="translate(0, 0)"></use><use xlink:href="#transformed-35725" transform="translate(100, 0)"></use><use xlink:href="#transformed-35725" transform="translate(-100, 100)"></use><use xlink:href="#transformed-35725" transform="translate(0, 100)"></use><use xlink:href="#transformed-35725" transform="translate(100, 100)"></use></svg>